<svg xmlns="http://www.w3.org/2000/svg" viewBox="0 0 377.87 73.44"><defs><style>.a{fill:#221e1f;}.b{fill:#ed1b23;}</style></defs><title>bushiroad</title><path class="a" d="M88,36.7h13.31c6.68,0,11,2.35,8.8,9.13-1.38,4.28-5.79,7-10,7.87l0,.1c4,.39,6,3.08,3.84,8.38-2.33,5.74-8.23,10.55-19.3,10.55H71.58ZM82.52,67.49h3.32c4.09,0,7.48-1.37,9.34-5.56s-.31-5.4-4-5.4H87.47Zm7.23-16h2.43c4.68,0,7.43-1.37,9-4.74s.32-4.94-3.89-4.94H94.19Z"/><path class="a" d="M132.13,36.7,120.67,61.83c-1.63,3.58-1.82,6.26,2.15,6.26,3.51,0,6.18-2.67,7.8-6.26L142.08,36.7l8.9.08L139.52,61.9c-4.2,9.18-12.23,11.53-19.16,11.53s-12.49-2.72-8.08-12.36L123.39,36.7Z"/><path class="a" d="M155.17,60.94l-.7,1.6c-1.53,3.38-1.23,5.66,3.27,5.66,2.61,0,6.3-1.4,7.47-4.5s-.43-4.91-5-6.7c-6.83-2.65-8-7-5.25-12.13,3.54-6.77,9.74-8.89,17-8.89,6.9,0,11.7,2.71,8.66,9.69L180.07,47h-7.91c1.47-3.1,1.8-5.79-2.26-5.79a7.35,7.35,0,0,0-7,4.32c-1,2.22-.69,3.68,2.35,5L169,52.15c4.87,2.2,7.3,5.83,5,11-3.48,7.93-10.83,10.26-18.92,10.26-8.59,0-11.86-4.33-9.12-10.5l.91-2Z"/><path class="a" d="M193.64,36.7h8.81L196,50.84h9.95L212.4,36.7h9l-16.42,36h-9l7.28-16h-9.95l-7.28,16h-8.81Z"/><path class="a" d="M214.91,72.73l16.42-36h9l-16.42,36Z"/><path class="a" d="M251,36.7h13.92c7.46,0,11.17,2.72,9,9.29-1.62,4.9-5.83,7.83-11,8.69l0,.1c4.73.73,5.5,3.57,2.1,11.19-1.61,3.79-2,5.43-.82,6.76h-8.72c-.61-1.15-.66-2.53.57-5.58L258.09,62c1.17-2.83.55-4.73-2.89-4.73h-5l-7,15.43h-8.66Zm1.54,15.56h3.18c4.4,0,7.61-1.56,9.29-5.48,1.49-3.48.61-4.94-3.68-4.94h-4Z"/><path class="a" d="M300.21,36c11.59,0,11.41,6.87,5.86,18.72-5.81,12.42-9.84,18.72-22.93,18.72-11.59,0-11-7.83-5.86-18.72C283.53,41.39,287.53,36,300.21,36Zm-14.69,32.3c4.58,0,6.82-2,11.94-13.57,4.27-9.68,5.41-13.6.38-13.6-4.82,0-6.16,1.59-11.94,13.6C281.27,64.31,280.49,68.29,285.52,68.29Z"/><path class="a" d="M328.9,36.7h10.54l-5.23,36h-8.88l1.59-8H315.85l-5.68,8h-8.88Zm-9.13,22.46h8.29l3.41-16.63h-.05Z"/><path class="a" d="M355.1,36.7h12.43c12.08,0,12.09,6,7.53,17.51-5.29,13.37-11.7,18.52-23.51,18.52H338.68Zm-5.43,30.68h3.79c5.92,0,8.53-3.18,13-13,3.76-8.18,4.89-12.44-1.62-12.44H361.2Z"/><path class="b" d="M3,72.88h31.9c10.17,0,25.33,0,28.92-9.89,3.95-10.89-11.3-14.7-11.3-14.7s9.43.72,13-6,.51-12.9-13-19C43,19,17.15,6.93,3.43.5,2.2-.1,1.14-.22.48.45S-.19,2.11.67,3.3L17.74,24c1.59,2,1.64,4.09.3,7L.7,68.79C-.47,71.35.42,72.88,3,72.88ZM37,45.41c7.2,3.47,12.44,7.8,10.27,13.6-2.06,5.48-7,7.74-22.95,7.9-1.83,0-2.81-.07-1.73-2.55L39.64,25c.71-1.65,1.7-1.8,3.33-1.07,8.25,3.86,11.5,7.7,8.83,14.52-2.27,5.8-9.6,6.24-14.43,5.85C36.17,44.15,36.13,45,37,45.41Z"/></svg>